<?xml version="1.0" encoding="UTF-8" standalone="no"?>

<svg
   version="1.1"
   id="svg1"
   width="1024"
   height="1024"
   viewBox="0 0 1024 1024"
   sodipodi:docname="robloxTracker.svg"
   inkscape:version="1.4 (86a8ad7, 2024-10-11)"
   xmlns:inkscape="http://www.inkscape.org/namespaces/inkscape"
   xmlns:sodipodi="http://sodipodi.sourceforge.net/DTD/sodipodi-0.dtd"
   xmlns="http://www.w3.org/2000/svg"
   xmlns:svg="http://www.w3.org/2000/svg">
  <defs
     id="defs1" />
  <sodipodi:namedview
     id="namedview1"
     pagecolor="#ffffff"
     bordercolor="##9f9f9f"
     borderopacity="0.25"
     inkscape:showpageshadow="2"
     inkscape:pageopacity="0.0"
     inkscape:pagecheckerboard="0"
     inkscape:deskcolor="#d1d1d1"
     inkscape:zoom="0.35562499"
     inkscape:cx="594.7276"
     inkscape:cy="552.54834"
     inkscape:window-width="1366"
     inkscape:window-height="697"
     inkscape:window-x="-8"
     inkscape:window-y="-8"
     inkscape:window-maximized="1"
     inkscape:current-layer="svg1" />
  <path
     style="display:inline;fill:#9f9f9f"
     d="m 542,828.8951 c 26.96968,-2.45417 60.8185,-10.02046 84.45591,-18.87858 C 708.29332,779.34795 774.21705,720.08874 812.812,642.5 c 17.22747,-34.63296 27.3884,-67.8453 32.88837,-107.5 2.51804,-18.15498 2.50573,-66.26642 -0.0217,-85 -8.79679,-65.20154 -34.19228,-122.99928 -76.45309,-174 -2.96236,-3.575 -11.00926,-12.22196 -17.88202,-19.21548 l -12.49591,-12.71547 32.85739,-38.78453 c 18.07156,-21.33148 33.81233,-40.02737 34.97947,-41.54641 5.09231,-6.62764 -4.1981,-15.51824 -10.43727,-9.98811 -1.0859,0.9625 -16.50357,19.075 -34.26148,40.25 -17.75792,21.175 -32.62003,38.87823 -33.02692,39.3405 -0.40689,0.46228 -4.56817,-2.08053 -9.24729,-5.65069 -80.20244,-61.1943 -182.64139,-83.69525 -282.71146,-62.09823 -67.61572,14.59276 -133.53664,53.54181 -178.26337,105.32603 -42.28557,48.95787 -67.86724,102.71355 -78.17043,164.26233 -3.73952,22.33899 -4.91644,41.09397 -4.24903,67.71109 0.91658,36.55455 5.137,61.8575 15.86377,95.10897 16.17336,50.13511 42.88725,93.63933 82.04003,133.60421 l 12.83793,13.1042 -14.99967,17.65585 c -8.24981,9.71072 -15.50898,18.60752 -16.13148,19.77067 -0.91806,1.71541 -0.76337,2.61061 0.81909,4.73995 2.60126,3.50021 6.45671,3.88931 9.24111,0.93261 1.19517,-1.26912 8.50303,-9.80292 16.23969,-18.96399 l 14.06666,-16.6565 8.60283,6.74732 c 33.62544,26.3729 76.79835,47.76725 122.10283,60.50808 8.3514,2.34864 33.31641,7.22827 44,8.60018 19.94368,2.56104 48.46144,2.90346 71,0.85252 z m -54,-13.50787 c -44.12357,-3.82658 -82.51495,-14.86446 -122.5,-35.21991 -15.44805,-7.86423 -39.52382,-23.27803 -52.22862,-33.43782 l -7.21601,-5.77051 22.63452,-26.72949 c 12.44898,-14.70123 22.72619,-26.85666 22.83823,-27.01208 0.11204,-0.15542 4.20155,2.69873 9.0878,6.34256 63.34996,47.24208 142.05599,62.0295 218.45944,41.04452 49.15306,-13.50038 95.91864,-44.43316 128.5604,-85.03542 28.51401,-35.46787 46.75822,-78.39645 52.96282,-124.62147 2.03994,-15.1978 2.30938,-47.24918 0.51656,-61.44761 -7.30159,-57.82562 -29.16409,-105.16106 -66.71097,-144.43877 L 684.30834,308.5 704.25603,285 c 10.97123,-12.925 20.98259,-24.81011 22.24748,-26.41135 l 2.29979,-2.91135 5.75107,4.91135 c 7.19476,6.14423 25.32207,26.71361 35.17295,39.91135 26.59656,35.63282 47.54511,80.64349 56.67472,121.77295 9.63996,43.42857 9.99895,92.37854 0.9904,135.04529 -10.37305,49.12937 -30.96959,93.1558 -63.01589,134.70058 -10.63012,13.78086 -39.11376,42.71646 -52.58482,53.41918 -17.09092,13.57869 -37.10832,26.09528 -59.27257,37.06226 -35.81936,17.7236 -61.69817,25.72045 -100.51916,31.06156 -10.95092,1.50666 -53.6368,2.72415 -64,1.82541 z M 283.40119,719.79832 C 258.66976,694.4766 239.24713,667.24434 223.63441,636 206.58083,601.87219 197.83746,573.20454 192.37285,533.5 c -2.51072,-18.24229 -2.53896,-64.66326 -0.0502,-82.5 5.36241,-38.43174 14.45626,-68.247 30.80566,-101 15.24938,-30.54934 34.36749,-57.39392 58.30107,-81.86313 14.96225,-15.29712 26.62995,-25.33809 42.76456,-36.80229 44.00513,-31.26717 92.55721,-49.92624 148.30605,-56.99557 19.09471,-2.42134 60.5718,-2.41346 79,0.015 53.08729,6.99584 98.08922,23.62923 140.5,51.93092 11.65849,7.77998 26,18.60482 26,19.62456 0,0.62991 -39.3345,47.74838 -42.82264,51.29689 -1.57776,1.60506 -2.093,1.38145 -8.67736,-3.76584 -36.95636,-28.89051 -81.32229,-46.79778 -127.35595,-51.40426 -14.85023,-1.48602 -42.60347,-1.27721 -57.15018,0.42999 -46.70472,5.48127 -87.16385,21.86458 -125.31855,50.74586 -11.07747,8.38512 -31.12716,28.09965 -40.97279,40.28786 -45.31587,56.09798 -64.01901,129.50783 -51.61004,202.56953 8.4193,49.57131 31.00156,94.09324 66.24081,130.59672 10.68044,11.06361 11.7034,12.43663 10.5,14.09321 -1.36771,1.88275 -34.92346,41.67406 -40.97554,48.58989 l -3.36859,3.84935 z m 209.15807,9.15088 C 446.05301,725.08702 399.80986,706.45712 362.5,676.55245 352.78161,668.76295 334.01484,650.07896 326.28783,640.5 298.67853,606.27357 280.77044,562.54993 276.0287,517.78941 274.50944,503.44809 274.76645,474.89547 276.53716,461.30122 282.6274,414.54487 301.19506,372.50701 331.21878,337.5 394.27394,263.97905 496.95971,236.47735 590,268.19221 c 22.41911,7.64206 55.1826,25.72112 69.92839,38.58685 l 4.42838,3.86378 -27.78457,32.92858 c -15.28151,18.11072 -28.17646,33.07514 -28.65544,33.25427 -0.47898,0.17912 -7.9687,-2.14488 -16.64382,-5.16444 -13.23776,-4.6077 -130.74076,-45.84913 -149.73828,-52.55543 -7.26089,-2.56316 -9.74942,-2.63828 -11.78668,-0.35582 -0.8591,0.9625 -15.96359,41.35 -33.56554,89.75 -17.60195,48.4 -37.21879,102.28364 -43.59299,119.74142 C 346.21525,545.69921 341,561.03327 341,562.31711 c 0,1.28384 1.0125,3.2424 2.25,4.35235 1.2375,1.10995 18,7.69998 37.25,14.64451 19.25,6.94453 74.15,26.81092 122,44.14752 47.85,17.33661 87.70906,31.52502 88.57569,31.52981 0.86662,0.005 2.51592,-1.0038 3.6651,-2.2413 1.19896,-1.2911 10.40307,-25.05042 21.59696,-55.75 10.72915,-29.425 27.00732,-73.975 36.17371,-99 C 680.94934,422.36227 685,411.02316 685,409.05411 c 0,-1.04992 -1.04937,-2.72911 -2.33192,-3.73153 -1.28256,-1.00242 -15.44502,-6.50095 -31.47213,-12.21896 l -29.14021,-10.39638 4.79494,-5.60362 c 2.63721,-3.08199 14.40386,-17.07862 26.1481,-31.10362 11.74425,-14.025 21.54859,-25.725 21.78743,-26 0.61565,-0.70884 13.12922,12.85235 21.68459,23.5 C 730.65826,386.04826 748,436.02474 748,492 c 0,37.28578 -7.38537,70.34707 -22.89687,102.5 -11.9076,24.6826 -23.26374,41.07865 -42.14941,60.85553 -32.40426,33.93341 -74.95726,58.44055 -118.10544,68.01933 -24.3858,5.41358 -50.22873,7.40637 -72.28902,5.57434 z m 35.09156,-68.03346 C 536.63722,659.66585 539,658.66061 539,656.08726 c 0,-3.87199 -2.0322,-4.25031 -15.98488,-2.97574 -47.94596,4.37981 -96.52377,-15.1757 -130.54977,-52.55419 C 386.25598,593.73616 384.11177,592 381.89679,592 c -5.87656,0 -4.63343,3.76802 4.76898,14.45516 18.17869,20.66259 45.17491,38.33037 72.00044,47.12096 9.68995,3.17535 27.25458,6.96464 35.83379,7.73056 9.16275,0.81803 25.87571,0.62094 33.15082,-0.39094 z m 110.99884,-59.23737 c 25.99307,-28.51873 42.28669,-72.91233 41.16431,-112.15628 L 679.5,478.54417 l -2.80888,-0.98583 c -4.04713,-1.42043 -4.65797,0.20837 -4.67581,12.46789 -0.0363,24.93434 -5.32317,48.34574 -15.94418,70.60393 -5.09416,10.67569 -9.40074,17.49252 -19.75651,31.27234 -6.24697,8.31247 -7.44482,11.5673 -5.11462,13.8975 1.82633,1.82633 2.23404,1.60076 7.44966,-4.12163 z M 350.23509,512.25 c 1.24587,-1.41113 1.64597,-5.71966 2.06615,-22.25 0.38733,-15.23774 1.03892,-22.8826 2.5384,-29.78181 4.51137,-20.75721 12.05566,-38.29695 24.57417,-57.1325 4.1724,-6.27787 7.58619,-12.22454 7.58619,-13.21482 0,-0.99028 -0.94246,-2.30489 -2.09435,-2.92136 -2.79227,-1.49438 -5.37145,0.95001 -12.71503,12.05049 -18.95739,28.65583 -28.171,58.41495 -28.32951,91.50178 -0.0972,20.29895 1.83443,26.8899 6.37398,21.74822 z M 497.5,523.39415 c -17.6,-6.29963 -32.5149,-12.13635 -33.14423,-12.97049 -1.45974,-1.93481 -2.25246,0.60755 11.98066,-38.42366 11.33966,-31.09654 12.39474,-33.52108 14.70594,-33.79385 1.8443,-0.21767 51.81447,16.86524 68.16956,23.30459 0.94157,0.37071 1.96042,1.45694 2.26413,2.41384 0.5729,1.80504 -22.43145,67.11182 -24.53152,69.64224 -0.65418,0.78825 -2.59683,1.39898 -4.31698,1.35719 C 530.9074,534.88221 515.1,529.69378 497.5,523.39415 Z"
     id="path1"
     sodipodi:nodetypes="ssssssscsssssssssssscssssscsssssssscsssssssscsscsssssssssssssssssssssssssssssscssssssssscssssssssssscsssssscsssssssssssssssssssscssssssssssssssssssssssss" />
</svg>
